# xmcd
#
# Track frame offsets:
#	150
#	17316
#	37734
#	59605
#	82430
#	97972
#	119579
#	135825
#	151182
#	169430
#	190693
#	204855
#
# Disc length: 2974 seconds
#
# Revision: 1
# Processed by: cddbd v1.4PL0 Copyright (c) Steve Scherf et al.
# Submitted via: audiograbber 1.80
#
DISCID=920b9c0c
DTITLE=The Top Cats - Out of the Bag
DYEAR=1900
DGENRE=
TTITLE0=Black Cat Bone
TTITLE1=How Long
TTITLE2=Checkin' Up
TTITLE3=Slip Away
TTITLE4=Be Careful
TTITLE5=Hold That Train
TTITLE6=Flip Flop and Fly
TTITLE7=Black Cat Bone
TTITLE8=Mojo Man
TTITLE9=Key To The Highway
TTITLE10=What's Wrong
TTITLE11=Crossroads
EXTD=Tempe, AZ
EXTT0=
EXTT1=
EXTT2=
EXTT3=
EXTT4=
EXTT5=
EXTT6=
EXTT7=
EXTT8=
EXTT9=
EXTT10=
EXTT11=
PLAYORDER=
